<svg xmlns="http://www.w3.org/2000/svg" version="1.1" xmlns:xlink="http://www.w3.org/1999/xlink" xmlns:svgjs="http://svgjs.dev/svgjs" width="2000" height="560" viewBox="0 0 2000 560"><g transform="matrix(1,0,0,1,-1.212119020553132,-0.12747536270603632)"><svg viewBox="0 0 396 111" data-background-color="#ffffff" preserveAspectRatio="xMidYMid meet" height="560" width="2000" xmlns="http://www.w3.org/2000/svg" xmlns:xlink="http://www.w3.org/1999/xlink"><g id="tight-bounds" transform="matrix(1,0,0,1,0.239999566069514,0.02526743796494202)"><svg viewBox="0 0 395.52 110.94946512407012" height="110.94946512407012" width="395.52"><g><svg viewBox="0 0 595.4372960237563 167.02935252012128" height="110.94946512407012" width="395.52"><g transform="matrix(1,0,0,1,199.91729602375636,48.68696875947282)"><svg viewBox="0 0 395.52 69.65541500117564" height="69.65541500117564" width="395.52"><g id="textblocktransform"><svg viewBox="0 0 395.52 69.65541500117564" height="69.65541500117564" width="395.52" id="textblock"><g><svg viewBox="0 0 395.52 69.65541500117564" height="69.65541500117564" width="395.52"><g transform="matrix(1,0,0,1,0,0)"><svg width="395.52" viewBox="4.099999904632568 -37.099998474121094 213.63999938964844 37.44999694824219" height="69.65541500117564" data-palette-color="#f87171"><g class="undefined-text-0" data-fill-palette-color="primary" id="text-0"><path d="M18.9-27Q22.8-27 25.88-25.3 28.95-23.6 30.7-20.5 32.45-17.4 32.45-13.35L32.45-13.35Q32.45-9.3 30.7-6.18 28.95-3.05 25.88-1.35 22.8 0.35 18.9 0.35L18.9 0.35Q16.15 0.35 13.88-0.6 11.6-1.55 10.05-3.45L10.05-3.45 10.05 0 4.1 0 4.1-37.1 10.35-37.1 10.35-23.45Q11.95-25.2 14.13-26.1 16.3-27 18.9-27L18.9-27ZM18.2-5Q21.65-5 23.88-7.3 26.1-9.6 26.1-13.35L26.1-13.35Q26.1-17.1 23.88-19.4 21.65-21.7 18.2-21.7L18.2-21.7Q15.95-21.7 14.15-20.68 12.35-19.65 11.3-17.75 10.25-15.85 10.25-13.35L10.25-13.35Q10.25-10.85 11.3-8.95 12.35-7.05 14.15-6.03 15.95-5 18.2-5L18.2-5ZM63.5-13.2Q63.5-12.55 63.4-11.35L63.4-11.35 42.45-11.35Q43-8.4 45.32-6.68 47.65-4.95 51.1-4.95L51.1-4.95Q55.5-4.95 58.35-7.85L58.35-7.85 61.7-4Q59.9-1.85 57.15-0.75 54.4 0.35 50.95 0.35L50.95 0.35Q46.55 0.35 43.2-1.4 39.85-3.15 38.02-6.28 36.2-9.4 36.2-13.35L36.2-13.35Q36.2-17.25 37.97-20.38 39.75-23.5 42.9-25.25 46.05-27 50-27L50-27Q53.9-27 56.97-25.28 60.05-23.55 61.77-20.43 63.5-17.3 63.5-13.2L63.5-13.2ZM50-22Q47-22 44.92-20.23 42.85-18.45 42.4-15.5L42.4-15.5 57.55-15.5Q57.15-18.4 55.1-20.2 53.05-22 50-22L50-22ZM79.7-27Q85.6-27 88.72-24.18 91.85-21.35 91.85-15.65L91.85-15.65 91.85 0 85.95 0 85.95-3.25Q84.8-1.5 82.67-0.58 80.55 0.35 77.55 0.35L77.55 0.35Q74.55 0.35 72.3-0.68 70.05-1.7 68.82-3.53 67.6-5.35 67.6-7.65L67.6-7.65Q67.6-11.25 70.27-13.43 72.95-15.6 78.7-15.6L78.7-15.6 85.6-15.6 85.6-16Q85.6-18.8 83.92-20.3 82.25-21.8 78.95-21.8L78.95-21.8Q76.7-21.8 74.52-21.1 72.35-20.4 70.85-19.15L70.85-19.15 68.4-23.7Q70.5-25.3 73.45-26.15 76.4-27 79.7-27L79.7-27ZM78.85-4.2Q81.2-4.2 83.02-5.28 84.85-6.35 85.6-8.35L85.6-8.35 85.6-11.45 79.15-11.45Q73.75-11.45 73.75-7.9L73.75-7.9Q73.75-6.2 75.1-5.2 76.45-4.2 78.85-4.2L78.85-4.2ZM105.79-22.8Q108.49-27 115.29-27L115.29-27 115.29-21.05Q114.49-21.2 113.84-21.2L113.84-21.2Q110.19-21.2 108.14-19.07 106.09-16.95 106.09-12.95L106.09-12.95 106.09 0 99.84 0 99.84-26.7 105.79-26.7 105.79-22.8ZM135.64-27Q139.54-27 142.62-25.3 145.69-23.6 147.44-20.5 149.19-17.4 149.19-13.35L149.19-13.35Q149.19-9.3 147.44-6.18 145.69-3.05 142.62-1.35 139.54 0.35 135.64 0.35L135.64 0.35Q132.89 0.35 130.62-0.6 128.34-1.55 126.79-3.45L126.79-3.45 126.79 0 120.84 0 120.84-37.1 127.09-37.1 127.09-23.45Q128.69-25.2 130.87-26.1 133.04-27 135.64-27L135.64-27ZM134.94-5Q138.39-5 140.62-7.3 142.84-9.6 142.84-13.35L142.84-13.35Q142.84-17.1 140.62-19.4 138.39-21.7 134.94-21.7L134.94-21.7Q132.69-21.7 130.89-20.68 129.09-19.65 128.04-17.75 126.99-15.85 126.99-13.35L126.99-13.35Q126.99-10.85 128.04-8.95 129.09-7.05 130.89-6.03 132.69-5 134.94-5L134.94-5ZM170.29-27Q175.34-27 178.39-24.05 181.44-21.1 181.44-15.3L181.44-15.3 181.44 0 175.19 0 175.19-14.5Q175.19-18 173.54-19.78 171.89-21.55 168.84-21.55L168.84-21.55Q165.39-21.55 163.39-19.48 161.39-17.4 161.39-13.5L161.39-13.5 161.39 0 155.14 0 155.14-26.7 161.09-26.7 161.09-23.25Q162.64-25.1 164.99-26.05 167.34-27 170.29-27L170.29-27ZM204.19-27Q208.09-27 211.16-25.3 214.24-23.6 215.99-20.5 217.74-17.4 217.74-13.35L217.74-13.35Q217.74-9.3 215.99-6.18 214.24-3.05 211.16-1.35 208.09 0.35 204.19 0.35L204.19 0.35Q201.44 0.35 199.16-0.6 196.89-1.55 195.34-3.45L195.34-3.45 195.34 0 189.39 0 189.39-37.1 195.64-37.1 195.64-23.45Q197.24-25.2 199.41-26.1 201.59-27 204.19-27L204.19-27ZM203.49-5Q206.94-5 209.16-7.3 211.39-9.6 211.39-13.35L211.39-13.35Q211.39-17.1 209.16-19.4 206.94-21.7 203.49-21.7L203.49-21.7Q201.24-21.7 199.44-20.68 197.64-19.65 196.59-17.75 195.54-15.85 195.54-13.35L195.54-13.35Q195.54-10.85 196.59-8.95 197.64-7.05 199.44-6.03 201.24-5 203.49-5L203.49-5Z" fill="#f87171" data-fill-palette-color="primary"></path></g></svg></g></svg></g></svg></g></svg></g><g><svg viewBox="0 0 167.02935252012128 167.02935252012128" height="167.02935252012128" width="167.02935252012128"><g><svg></svg></g><g id="icon-0"><svg viewBox="0 0 167.02935252012128 167.02935252012128" height="167.02935252012128" width="167.02935252012128"><g><path d="M0 83.515c0-46.124 37.391-83.515 83.515-83.515 46.124 0 83.515 37.391 83.514 83.515 0 46.124-37.391 83.515-83.514 83.514-46.124 0-83.515-37.391-83.515-83.514zM83.515 160.748c42.655 0 77.233-34.578 77.233-77.233 0-42.655-34.578-77.233-77.233-77.233-42.655 0-77.233 34.578-77.233 77.233 0 42.655 34.578 77.233 77.233 77.233z" data-fill-palette-color="accent" fill="#f87171" stroke="transparent"></path></g><g transform="matrix(1,0,0,1,35.519715321538534,37.54459594080889)"><svg viewBox="0 0 95.98992187704421 91.9401606385035" height="91.9401606385035" width="95.98992187704421"><g><svg xmlns="http://www.w3.org/2000/svg" xmlns:xlink="http://www.w3.org/1999/xlink" version="1.1" x="0" y="0" viewBox="13.699996948242188 24.897998809814453 72.60100555419922 69.53800964355469" enable-background="new 0 0 100 100" xml:space="preserve" height="91.9401606385035" width="95.98992187704421" class="icon-s-0" data-fill-palette-color="accent" id="s-0"><g fill="#f87171" data-fill-palette-color="accent"><path fill="#f87171" d="M86.301 35.009c0-5.575-4.535-10.111-10.111-10.111-3.431 0-6.549 1.713-8.41 4.529-0.029-0.002-0.057-0.012-0.086-0.012H32.308c-0.03 0-0.058 0.01-0.087 0.012-1.861-2.816-4.979-4.529-8.41-4.529-5.575 0-10.111 4.536-10.111 10.111 0 3.628 1.921 6.915 4.988 8.714-2.395 4.78-3.701 10.123-3.701 15.699 0 19.307 15.707 35.014 35.014 35.014s35.014-15.707 35.014-35.014c0-5.576-1.307-10.919-3.701-15.699C84.381 41.924 86.301 38.637 86.301 35.009zM76.189 27.397c4.197 0 7.611 3.414 7.611 7.611 0 2.706-1.418 5.16-3.689 6.522-2.525-4.244-5.957-7.959-10.16-10.871C71.363 28.624 73.667 27.397 76.189 27.397zM16.199 35.009c0-4.197 3.414-7.611 7.611-7.611 2.523 0 4.827 1.227 6.238 3.263-4.203 2.912-7.635 6.627-10.16 10.871C17.617 40.169 16.199 37.715 16.199 35.009zM50 91.936c-17.928 0-32.514-14.586-32.514-32.514 0-5.527 1.376-10.812 3.896-15.474 0.04-0.051 0.084-0.098 0.117-0.156 2.596-4.722 6.367-8.766 10.906-11.695 0.01-0.007 0.016-0.017 0.025-0.023 0.08-0.051 0.154-0.107 0.234-0.158h34.669c0.08 0.051 0.154 0.107 0.233 0.158 0.01 0.007 0.016 0.017 0.025 0.023 4.539 2.93 8.311 6.974 10.907 11.695 0.032 0.058 0.076 0.104 0.116 0.155 2.521 4.662 3.896 9.947 3.896 15.475C82.514 77.35 67.928 91.936 50 91.936z" data-fill-palette-color="accent"></path><circle fill="#f87171" cx="30.672" cy="51.655" r="2.4" data-fill-palette-color="accent"></circle><circle fill="#f87171" cx="69.684" cy="51.655" r="2.4" data-fill-palette-color="accent"></circle><path fill="#f87171" d="M55.354 73.063h-4.426v-2.543c0-0.15-0.056-0.283-0.133-0.4 1.58-0.292 2.783-1.675 2.783-3.337 0-1.874-1.525-3.399-3.4-3.399s-3.399 1.525-3.399 3.399c0 1.662 1.202 3.045 2.782 3.337-0.077 0.117-0.133 0.25-0.133 0.4v2.543h-4.43c-0.414 0-0.75 0.336-0.75 0.75s0.336 0.75 0.75 0.75h10.355c0.414 0 0.75-0.336 0.75-0.75S55.768 73.063 55.354 73.063zM48.278 66.783c0-1.047 0.853-1.899 1.899-1.899 1.048 0 1.9 0.853 1.9 1.899s-0.853 1.899-1.9 1.899C49.131 68.683 48.278 67.83 48.278 66.783z" data-fill-palette-color="accent"></path><path fill="#f87171" d="M50.178 52.761c-7.732 0-14.021 6.29-14.021 14.022 0 7.731 6.289 14.021 14.021 14.021s14.023-6.29 14.023-14.021C64.201 59.051 57.91 52.761 50.178 52.761zM50.178 78.305c-6.354 0-11.521-5.169-11.521-11.521 0-6.354 5.168-11.522 11.521-11.522s11.523 5.169 11.523 11.522C61.701 73.136 56.531 78.305 50.178 78.305z" data-fill-palette-color="accent"></path></g></svg></g></svg></g></svg></g></svg></g></svg></g><defs></defs></svg><rect width="395.52" height="110.94946512407012" fill="none" stroke="none" visibility="hidden"></rect></g></svg></g></svg>