<svg xmlns="http://www.w3.org/2000/svg" version="1.1" xmlns:xlink="http://www.w3.org/1999/xlink" xmlns:svgjs="http://svgjs.dev/svgjs" width="128" height="128" viewBox="0 0 128 128"><g transform="matrix(0.8046875,0,0,0.8046875,12.760752631578946,15.15825382221174)"><svg viewBox="0 0 95 91" data-background-color="#ffffff" preserveAspectRatio="xMidYMid meet" height="122" width="128" xmlns="http://www.w3.org/2000/svg" xmlns:xlink="http://www.w3.org/1999/xlink"><g id="tight-bounds" transform="matrix(1,0,0,1,-0.24049999999999727,-0.22635210258812322)"><svg viewBox="0 0 95.481 91.45270420517625" height="91.45270420517625" width="95.481"><g><svg viewBox="0 0 95.481 91.45270420517625" height="91.45270420517625" width="95.481"><g><svg viewBox="0 0 95.481 91.45270420517625" height="91.45270420517625" width="95.481"><g id="textblocktransform"><svg viewBox="0 0 95.481 91.45270420517625" height="91.45270420517625" width="95.481" id="textblock"><g><svg viewBox="0 0 95.481 91.45270420517625" height="91.45270420517625" width="95.481"><g><svg viewBox="0 0 95.481 91.45270420517625" height="91.45270420517625" width="95.481"><g><svg xmlns="http://www.w3.org/2000/svg" xmlns:xlink="http://www.w3.org/1999/xlink" version="1.1" x="0" y="0" viewBox="13.699999999999996 24.898 72.601 69.53800000000001" enable-background="new 0 0 100 100" xml:space="preserve" height="91.45270420517625" width="95.481" class="icon-icon-0" data-fill-palette-color="accent" id="icon-0"><g fill="#f87171" data-fill-palette-color="accent"><path fill="#f87171" d="M86.301 35.009c0-5.575-4.535-10.111-10.111-10.111-3.431 0-6.549 1.713-8.41 4.529-0.029-0.002-0.057-0.012-0.086-0.012H32.308c-0.03 0-0.058 0.01-0.087 0.012-1.861-2.816-4.979-4.529-8.41-4.529-5.575 0-10.111 4.536-10.111 10.111 0 3.628 1.921 6.915 4.988 8.714-2.395 4.78-3.701 10.123-3.701 15.699 0 19.307 15.707 35.014 35.014 35.014s35.014-15.707 35.014-35.014c0-5.576-1.307-10.919-3.701-15.699C84.381 41.924 86.301 38.637 86.301 35.009zM76.189 27.397c4.197 0 7.611 3.414 7.611 7.611 0 2.706-1.418 5.16-3.689 6.522-2.525-4.244-5.957-7.959-10.16-10.871C71.363 28.624 73.667 27.397 76.189 27.397zM16.199 35.009c0-4.197 3.414-7.611 7.611-7.611 2.523 0 4.827 1.227 6.238 3.263-4.203 2.912-7.635 6.627-10.16 10.871C17.617 40.169 16.199 37.715 16.199 35.009zM50 91.936c-17.928 0-32.514-14.586-32.514-32.514 0-5.527 1.376-10.812 3.896-15.474 0.04-0.051 0.084-0.098 0.117-0.156 2.596-4.722 6.367-8.766 10.906-11.695 0.01-0.007 0.016-0.017 0.025-0.023 0.08-0.051 0.154-0.107 0.234-0.158h34.669c0.08 0.051 0.154 0.107 0.233 0.158 0.01 0.007 0.016 0.017 0.025 0.023 4.539 2.93 8.311 6.974 10.907 11.695 0.032 0.058 0.076 0.104 0.116 0.155 2.521 4.662 3.896 9.947 3.896 15.475C82.514 77.35 67.928 91.936 50 91.936z" data-fill-palette-color="accent"></path><circle fill="#f87171" cx="30.672" cy="51.655" r="2.4" data-fill-palette-color="accent"></circle><circle fill="#f87171" cx="69.684" cy="51.655" r="2.4" data-fill-palette-color="accent"></circle><path fill="#f87171" d="M55.354 73.063h-4.426v-2.543c0-0.15-0.056-0.283-0.133-0.4 1.58-0.292 2.783-1.675 2.783-3.337 0-1.874-1.525-3.399-3.4-3.399s-3.399 1.525-3.399 3.399c0 1.662 1.202 3.045 2.782 3.337-0.077 0.117-0.133 0.25-0.133 0.4v2.543h-4.43c-0.414 0-0.75 0.336-0.75 0.75s0.336 0.75 0.75 0.75h10.355c0.414 0 0.75-0.336 0.75-0.75S55.768 73.063 55.354 73.063zM48.278 66.783c0-1.047 0.853-1.899 1.899-1.899 1.048 0 1.9 0.853 1.9 1.899s-0.853 1.899-1.9 1.899C49.131 68.683 48.278 67.83 48.278 66.783z" data-fill-palette-color="accent"></path><path fill="#f87171" d="M50.178 52.761c-7.732 0-14.021 6.29-14.021 14.022 0 7.731 6.289 14.021 14.021 14.021s14.023-6.29 14.023-14.021C64.201 59.051 57.91 52.761 50.178 52.761zM50.178 78.305c-6.354 0-11.521-5.169-11.521-11.521 0-6.354 5.168-11.522 11.521-11.522s11.523 5.169 11.523 11.522C61.701 73.136 56.531 78.305 50.178 78.305z" data-fill-palette-color="accent"></path></g></svg></g></svg></g></svg></g></svg></g></svg></g></svg></g><defs></defs></svg><rect width="95.481" height="91.45270420517625" fill="none" stroke="none" visibility="hidden"></rect></g></svg></g></svg>